<?xml version="1.0" encoding="UTF-8" standalone="no"?>
<svg width="16px" height="16px" viewBox="0 0 16 16" version="1.1" xmlns="http://www.w3.org/2000/svg" xmlns:xlink="http://www.w3.org/1999/xlink" xmlns:sketch="http://www.bohemiancoding.com/sketch/ns">
    <!-- Generator: Sketch 3.5 (25232) - http://www.bohemiancoding.com/sketch -->
    <title>Actual Daily Count</title>
    <desc>Created with Sketch.</desc>
    <defs></defs>
    <g id="Icons" stroke="none" stroke-width="1" fill="none" fill-rule="evenodd" sketch:type="MSPage">
        <g id="Actual-Daily-Count" sketch:type="MSArtboardGroup" fill="#B0B0B0">
            <g sketch:type="MSLayerGroup" id="Shape">
                <path d="M4.74074074,15.9407407 C4.38518519,15.9407407 3.97037037,15.762963 3.67407407,15.5851852 L0.651851852,12.562963 C0.355555556,12.2666667 0.296296296,11.9111111 0.296296296,11.4962963 C0.296296296,11.0814815 0.474074074,10.7259259 0.651851852,10.4296296 L10.1333333,0.948148148 C10.7259259,0.355555556 11.6740741,0.355555556 12.1481481,0.948148148 L15.1703704,3.97037037 C15.4666667,4.26666667 15.5259259,4.62222222 15.5259259,5.03703704 C15.5259259,5.45185185 15.3481481,5.80740741 15.1703704,6.1037037 L5.68888889,15.5851852 C5.39259259,15.762963 5.0962963,15.9407407 4.74074074,15.9407407 L4.74074074,15.9407407 Z M11.2,1.54074074 C11.0814815,1.54074074 10.9037037,1.65925926 10.8444444,1.65925926 L1.36296296,11.1407407 C1.24444444,11.2592593 1.24444444,11.3185185 1.24444444,11.4962963 C1.24444444,11.6740741 1.36296296,11.7925926 1.36296296,11.8518519 L4.38518519,14.8740741 C4.56296296,15.0518519 4.85925926,15.0518519 5.03703704,14.8740741 L14.5185185,5.39259259 C14.637037,5.27407407 14.637037,5.21481481 14.637037,5.03703704 C14.637037,4.85925926 14.5185185,4.74074074 14.5185185,4.68148148 L11.4962963,1.65925926 C11.437037,1.6 11.3777778,1.54074074 11.2,1.54074074 L11.2,1.54074074 Z" sketch:type="MSShapeGroup"></path>
                <path d="M8.35555556,6.93333333 C8.23703704,6.93333333 8.05925926,6.93333333 8,6.81481481 L6.57777778,5.39259259 C6.4,5.21481481 6.4,4.91851852 6.57777778,4.74074074 C6.75555556,4.56296296 7.05185185,4.56296296 7.22962963,4.74074074 L8.65185185,6.16296296 C8.82962963,6.34074074 8.82962963,6.63703704 8.65185185,6.81481481 C8.53333333,6.81481481 8.41481481,6.93333333 8.35555556,6.93333333 L8.35555556,6.93333333 Z" sketch:type="MSShapeGroup"></path>
                <path d="M6.16296296,9.12592593 C6.04444444,9.12592593 5.86666667,9.12592593 5.80740741,9.00740741 L4.38518519,7.58518519 C4.20740741,7.40740741 4.20740741,7.11111111 4.38518519,6.93333333 C4.56296296,6.75555556 4.85925926,6.75555556 5.03703704,6.93333333 L6.45925926,8.35555556 C6.63703704,8.53333333 6.63703704,8.82962963 6.45925926,9.00740741 C6.45925926,9.00740741 6.22222222,9.12592593 6.16296296,9.12592593 L6.16296296,9.12592593 Z" sketch:type="MSShapeGroup"></path>
                <path d="M3.97037037,11.2592593 C3.85185185,11.2592593 3.67407407,11.2592593 3.61481481,11.1407407 L2.19259259,9.71851852 C2.01481481,9.54074074 2.01481481,9.24444444 2.19259259,9.06666667 C2.37037037,8.88888889 2.66666667,8.88888889 2.84444444,9.06666667 L4.26666667,10.4888889 C4.44444444,10.6666667 4.44444444,10.962963 4.26666667,11.1407407 C4.26666667,11.2 4.08888889,11.2592593 3.97037037,11.2592593 L3.97037037,11.2592593 Z" sketch:type="MSShapeGroup"></path>
                <path d="M10.4888889,4.74074074 C10.3703704,4.74074074 10.1925926,4.74074074 10.1333333,4.62222222 L8.71111111,3.2 C8.53333333,3.02222222 8.53333333,2.72592593 8.71111111,2.54814815 C8.88888889,2.37037037 9.18518519,2.37037037 9.36296296,2.54814815 L10.7851852,3.97037037 C10.962963,4.14814815 10.962963,4.44444444 10.7851852,4.62222222 C10.7259259,4.74074074 10.6074074,4.74074074 10.4888889,4.74074074 L10.4888889,4.74074074 Z" sketch:type="MSShapeGroup"></path>
            </g>
        </g>
    </g>
</svg>