<?xml version="1.0" encoding="UTF-8" standalone="no"?>
<svg width="16px" height="16px" viewBox="0 0 16 16" version="1.1" xmlns="http://www.w3.org/2000/svg" xmlns:xlink="http://www.w3.org/1999/xlink" xmlns:sketch="http://www.bohemiancoding.com/sketch/ns">
    <!-- Generator: Sketch 3.5 (25232) - http://www.bohemiancoding.com/sketch -->
    <title>Add Pig</title>
    <desc>Created with Sketch.</desc>
    <defs></defs>
    <g id="Icons" stroke="none" stroke-width="1" fill="none" fill-rule="evenodd" sketch:type="MSPage">
        <g id="Add-Pig" sketch:type="MSArtboardGroup" fill="#B0B0B0">
            <g sketch:type="MSLayerGroup" id="Shape">
                <path d="M15.2,8.50909091 L1.23636364,8.50909091 C0.872727273,8.50909091 0.654545455,8.29090909 0.654545455,7.92727273 C0.654545455,7.56363636 0.872727273,7.34545455 1.23636364,7.34545455 L15.2,7.34545455 C15.5636364,7.34545455 15.7818182,7.56363636 15.7818182,7.92727273 C15.7818182,8.29090909 15.5636364,8.50909091 15.2,8.50909091 L15.2,8.50909091 Z" sketch:type="MSShapeGroup"></path>
                <path d="M8.21818182,15.4909091 C7.85454545,15.4909091 7.63636364,15.2727273 7.63636364,14.9090909 L7.63636364,0.945454545 C7.63636364,0.581818182 7.85454545,0.363636364 8.21818182,0.363636364 C8.58181818,0.363636364 8.8,0.581818182 8.8,0.945454545 L8.8,14.9090909 C8.8,15.2727273 8.58181818,15.4909091 8.21818182,15.4909091 L8.21818182,15.4909091 Z" sketch:type="MSShapeGroup"></path>
            </g>
        </g>
    </g>
</svg>