<?xml version="1.0" encoding="UTF-8" standalone="no"?>
<svg width="16px" height="16px" viewBox="0 0 16 16" version="1.1" xmlns="http://www.w3.org/2000/svg" xmlns:xlink="http://www.w3.org/1999/xlink" xmlns:sketch="http://www.bohemiancoding.com/sketch/ns">
    <!-- Generator: Sketch 3.5 (25232) - http://www.bohemiancoding.com/sketch -->
    <title>Daily Litter Record</title>
    <desc>Created with Sketch.</desc>
    <defs></defs>
    <g id="Icons" stroke="none" stroke-width="1" fill="none" fill-rule="evenodd" sketch:type="MSPage">
        <g id="Daily-Litter-Record" sketch:type="MSArtboardGroup" fill="#B0B0B0">
            <g id="Daily-Litter-Record-Icon" sketch:type="MSLayerGroup">
                <g id="Group" sketch:type="MSShapeGroup">
                    <path d="M15.4857143,15.7142857 L0.857142857,15.7142857 C0.571428571,15.7142857 0.4,15.5428571 0.4,15.2571429 L0.4,0.628571429 C0.4,0.342857143 0.571428571,0.171428571 0.857142857,0.171428571 C1.14285714,0.171428571 1.31428571,0.342857143 1.31428571,0.628571429 L1.31428571,14.8 L15.4857143,14.8 C15.7714286,14.8 15.9428571,14.9714286 15.9428571,15.2571429 C15.9428571,15.5428571 15.7714286,15.7142857 15.4857143,15.7142857 L15.4857143,15.7142857 Z" id="Shape"></path>
                    <path d="M0.857142857,10.2285714 C0.685714286,10.2285714 0.571428571,10.1142857 0.514285714,10.0571429 C0.342857143,9.88571429 0.4,9.6 0.628571429,9.42857143 L4.17142857,6.8 C4.34285714,6.68571429 4.51428571,6.68571429 4.74285714,6.8 L8.22857143,8.91428571 L14.2857143,3.25714286 C14.4571429,3.08571429 14.7428571,3.08571429 14.9142857,3.25714286 C15.0857143,3.42857143 15.0857143,3.71428571 14.9142857,3.88571429 L8.62857143,9.82857143 C8.45714286,10 8.28571429,10 8.05714286,9.94285714 L4.57142857,7.82857143 L1.25714286,10.2857143 C1.08571429,10.2285714 0.971428571,10.2285714 0.857142857,10.2285714 L0.857142857,10.2285714 Z" id="Shape"></path>
                </g>
                <path d="M4.91428571,15.2571429 L4.91428571,11.2571429 L4,11.2571429 L4,15.2571429 L3.08571429,15.2571429 L3.08571429,10.8 C3.08571429,10.5142857 3.25714286,10.3428571 3.54285714,10.3428571 L5.37142857,10.3428571 C5.65714286,10.3428571 5.82857143,10.5142857 5.82857143,10.8 L5.82857143,15.2571429 L4.91428571,15.2571429 L4.91428571,15.2571429 Z" id="Shape" sketch:type="MSShapeGroup"></path>
                <path d="M9.02857143,15.2571429 L9.02857143,12.8 L8.11428571,12.8 L8.11428571,15.2571429 L7.2,15.2571429 L7.2,12.3428571 C7.2,12.0571429 7.37142857,11.8857143 7.65714286,11.8857143 L9.48571429,11.8857143 C9.77142857,11.8857143 9.94285714,12.0571429 9.94285714,12.3428571 L9.94285714,15.2571429 L9.02857143,15.2571429 L9.02857143,15.2571429 Z" id="Shape" sketch:type="MSShapeGroup"></path>
                <path d="M13.1428571,9.88571429 L12.2285714,9.88571429 L12.2285714,15.2571429 L11.3142857,15.2571429 L11.3142857,9.42857143 C11.3142857,9.14285714 11.4857143,8.97142857 11.7714286,8.97142857 L13.6,8.97142857 C13.8857143,8.97142857 14.0571429,9.14285714 14.0571429,9.42857143 L14.0571429,15.2571429 L13.1428571,15.2571429 L13.1428571,9.88571429 Z" id="Shape" sketch:type="MSShapeGroup"></path>
            </g>
        </g>
    </g>
</svg>