<?xml version="1.0" encoding="UTF-8" standalone="no"?>
<svg width="16px" height="16px" viewBox="0 0 16 16" version="1.1" xmlns="http://www.w3.org/2000/svg" xmlns:xlink="http://www.w3.org/1999/xlink" xmlns:sketch="http://www.bohemiancoding.com/sketch/ns">
    <!-- Generator: Sketch 3.5 (25232) - http://www.bohemiancoding.com/sketch -->
    <title>Dashboard</title>
    <desc>Created with Sketch.</desc>
    <defs></defs>
    <g id="Icons" stroke="none" stroke-width="1" fill="none" fill-rule="evenodd" sketch:type="MSPage">
        <g id="Dashboard" sketch:type="MSArtboardGroup" fill="#B0B0B0">
            <g id="Dashboard-Icon" sketch:type="MSLayerGroup" transform="translate(2.000000, 0.000000)">
                <path d="M10.4,15.5428571 L2.26086957,15.5428571 C1.0173913,15.5428571 0,14.5142857 0,13.2571429 L0,2.28571429 C0,1.02857143 1.0173913,-3.28626015e-14 2.26086957,-3.28626015e-14 L10.4,-3.28626015e-14 C11.6434783,-3.28626015e-14 12.6608696,1.02857143 12.6608696,2.28571429 L12.6608696,13.2571429 C12.6608696,14.5142857 11.7,15.5428571 10.4,15.5428571 L10.4,15.5428571 Z M2.26086957,0.914285714 C1.52608696,0.914285714 0.904347826,1.54285714 0.904347826,2.28571429 L0.904347826,13.2571429 C0.904347826,14 1.52608696,14.6285714 2.26086957,14.6285714 L10.4,14.6285714 C11.1347826,14.6285714 11.7565217,14 11.7565217,13.2571429 L11.7565217,2.28571429 C11.7565217,1.54285714 11.1347826,0.914285714 10.4,0.914285714 L2.26086957,0.914285714 L2.26086957,0.914285714 Z" id="Shape" sketch:type="MSShapeGroup"></path>
                <path d="M8.70434783,4.34285714 L3.27826087,4.34285714 C2.99565217,4.34285714 2.82608696,4.17142857 2.82608696,3.88571429 C2.82608696,3.6 2.99565217,3.42857143 3.27826087,3.42857143 L8.70434783,3.42857143 C8.98695652,3.42857143 9.15652174,3.6 9.15652174,3.88571429 C9.15652174,4.17142857 8.98695652,4.34285714 8.70434783,4.34285714 L8.70434783,4.34285714 Z" id="Shape" sketch:type="MSShapeGroup"></path>
                <path d="M8.70434783,8.34285714 L3.27826087,8.34285714 C2.99565217,8.34285714 2.82608696,8.17142857 2.82608696,7.88571429 C2.82608696,7.6 2.99565217,7.42857143 3.27826087,7.42857143 L8.70434783,7.42857143 C8.98695652,7.42857143 9.15652174,7.6 9.15652174,7.88571429 C9.15652174,8.17142857 8.98695652,8.34285714 8.70434783,8.34285714 L8.70434783,8.34285714 Z" id="Shape" sketch:type="MSShapeGroup"></path>
                <path d="M8.70434783,11.7714286 L3.27826087,11.7714286 C2.99565217,11.7714286 2.82608696,11.6 2.82608696,11.3142857 C2.82608696,11.0285714 2.99565217,10.8571429 3.27826087,10.8571429 L8.70434783,10.8571429 C8.98695652,10.8571429 9.15652174,11.0285714 9.15652174,11.3142857 C9.15652174,11.6 8.98695652,11.7714286 8.70434783,11.7714286 L8.70434783,11.7714286 Z" id="Shape" sketch:type="MSShapeGroup"></path>
            </g>
        </g>
    </g>
</svg>