<svg id="Layer_1" data-name="Layer 1" xmlns="http://www.w3.org/2000/svg" viewBox="0 0 1032.67 209.44"><defs><style>.cls-1{fill:#e64a19;}.cls-2{fill:#fff;}</style></defs><title>logo</title><g id="krUqxd.tif"><path class="cls-1" d="M5.25,111.7c0-12.31,0-24.63,0-36.94,0-8.11-.16-16.22.26-24.31A36.27,36.27,0,0,1,8.07,39.57,74.83,74.83,0,0,1,14.53,26.1,64.46,64.46,0,0,1,24.65,13.48a41.64,41.64,0,0,1,11.86-7.4A45.14,45.14,0,0,1,49.45,2.84c7.41-.78,14.89-1,22.34-1.18C78,1.53,84.13,1.9,90.3,2,95,2.06,99.71,2,104.41,2c11.13,0.19,22.26.54,33.39,0.62,9.12,0.06,18.24-.26,27.35-0.28,4.17,0,8.33.31,12.5,0.44,2.32,0.07,4.64.07,7,0,7.22-.08,14.45-0.29,21.67-0.25,7.93,0,15.86.38,23.26,3.69,5.86,2.62,11.89,5.27,16.22,10.08a110.92,110.92,0,0,1,11,15.09c1.74,2.75,2,6.39,3.72,9.21,4.32,7.29,2,15.07,2.19,22.65s-0.16,15.16-.19,22.74c-0.05,12.41.06,24.82-.1,37.23-0.15,12-.92,24-0.67,35.94,0.09,4.26-1.37,7.76-2.52,11.49a52.1,52.1,0,0,1-14.63,22.9c-3.78,3.52-8.41,6.15-12.75,9-6.76,4.48-14.39,4.45-22.12,4.21-6.57-.21-13.16.12-19.74,0.12-4.61,0-9.23-.18-13.84-0.21-5.07,0-10.15.06-15.22,0-3.18,0-6.35-.29-9.53-0.35-3.79-.08-7.58,0-11.38-0.08-4.85-.06-9.7-0.22-14.55-0.22-5.81,0-11.63.15-17.44,0.19s-11.49.15-17.24,0c-8.57-.18-17.13-0.61-25.69-0.77-6.77-.13-13.56-0.23-20.33,0-5.5.21-10-2.24-14.69-4.46-6.17-2.95-10.75-7.77-15-13a46.67,46.67,0,0,1-8.44-16.17,57,57,0,0,1-2.49-10.55,155,155,0,0,1-.45-15.75c0-5.25.42-10.49,0.5-15.74,0.09-6.06,0-12.13,0-18.2H5.25ZM168.2,186c0.62-3.11,1.17-6.52,2-9.86,0.72-2.87,2-5.6,2.63-8.48,0.92-4,1.29-8.18,2.29-12.18,1.57-6.3,3.5-12.52,5.2-18.79,0.6-2.22,1-4.51,1.4-6.77,0.53-2.81.86-5.66,1.53-8.43,0.85-3.52,2-7,2.94-10.48,1-3.88,1.91-7.79,2.83-11.69,0.63-2.66,1.1-5.35,1.85-8,0.6-2.1,1-4.83,3.43-5.34a40.79,40.79,0,0,1,9.27-.54c7.2,0.19,14.39.61,21.59,0.85a2.46,2.46,0,0,0,2-.89c1-3.77,1.94-7.58,2.8-11.39a2.33,2.33,0,0,0-2.36-2.95c-4.36-.3-8.74-0.38-13.11-0.42-5.3-.05-10.59,0-15.89,0-2,0-2.8-.9-2.21-2.91,0.71-2.42,1.29-4.89,2.07-7.29,0.57-1.75,1.47-3.39,2.08-5.14,1.75-5,4.55-9.22,9.48-11.54a36.69,36.69,0,0,1,8.65-3.14A43.81,43.81,0,0,1,229.4,40c4.15,0.27,8.25,1.31,12.4,1.81,2.12,0.25,2.82-1.41,3.21-3.17,0.25-1.12.54-2.24,0.8-3.36,0.51-2.24,1.15-4.46,1.47-6.72,0.27-1.91-1-2.76-2.77-2.9-4.74-.38-9.55-0.35-14.21-1.15-4.36-.75-8.44-0.15-12.72.39a41.93,41.93,0,0,0-21,8.46,44.6,44.6,0,0,0-13,16.95c-2.46,5.38-4.06,11.17-5.93,16.82-1.12,3.38-1.33,3.54-5,3.26a41.68,41.68,0,0,0-6.71,0,2.87,2.87,0,0,0-2.09,1.48c-1.17,3.54-2,7.19-3.16,10.75-0.72,2.28.32,3,2.31,3s4.11,0.12,6.17.11c4.29,0,3.94.71,3,4.59-1.07,4.65-2.44,9.23-3.57,13.87-1.27,5.25-2.34,10.56-3.64,15.8-2,8.18-4.26,16.31-6.21,24.5-1.23,5.16-2.1,10.41-3.17,15.61-0.22,1-.61,2.06-0.88,3.1-0.64,2.45-1.2,4.93-1.91,7.37a3.87,3.87,0,0,1-1.27,2.16,2.4,2.4,0,0,1-2.1-.59,73.22,73.22,0,0,1-5.88-6.12c-4.64-5.6-9.11-11.34-13.71-17s-9.43-11.31-14.1-17c-3.44-4.19-6.81-8.43-10.17-12.69-1.94-2.45-1.39-4.15,1.5-5.32,5.08-2.06,9.85-4.47,13.85-8.49a60.12,60.12,0,0,0,9.22-11.17c4.87-8,6.26-16.75,6.6-25.68,0.32-8.44-1.78-16.63-7-23.45-2.68-3.52-6.41-6.28-9.83-9.19-5.12-4.36-11.59-6.13-17.84-7.57s-13.05-1.51-19.61-1.91C76.76,26.32,70.89,26.3,65,26.19c-8.83-.17-17.68-0.59-26.5-0.34-5.7.16-6-.42-5.93,5.21,0,6.24-.13,12.48-0.21,18.72Q32,75.39,31.7,101c-0.12,10.07,0,20.15-.3,30.22-0.2,8.29-.85,16.57-1.12,24.86-0.29,8.91-.37,17.83-0.57,26.74-0.06,2.88,1.32,4.14,4,4,3.92-.27,7.85-0.47,11.77-0.42,4.73,0.07,5.53-.61,5.49-5.47s-0.13-10,0-15c0.18-7.82.57-15.64,0.77-23.46,0.13-4.89,0-9.79.13-14.68,0.1-4.24,1.31-5.68,4.43-5.65,7.77,0.1,15.54.15,23.3,0.38A6,6,0,0,1,83.15,124,55.93,55.93,0,0,1,88.78,130c4.6,5.67,9.11,11.41,13.63,17.15,3.84,4.87,7.6,9.8,11.48,14.63,3.44,4.29,7,8.48,10.5,12.75,3,3.64,5.83,7.34,8.81,11a2.62,2.62,0,0,0,1.8.85c2.61,0,5.22-.36,7.83-0.27,4.1,0.15,8.18.56,12.28,0.84a24.8,24.8,0,0,0,4,.15C162,186.84,165,186.4,168.2,186Z"/><path d="M786.08,66.63l0.63-.89c1.91,1,3.75,1.79,5.44,2.85,2.87,1.8,5.17,3.66,6.61,7.36,1.53,3.93,1.52,7.62,1.59,11.46,0.13,8.14.05,16.28,0,24.42q0,2.8-.16,5.59c-0.14,2.51,1.71,3.29,3.5,4.11,0.71,0.32,1.69.31,2.17,0.81,3,3.1,5.63,1,8.71.1,6-1.68,4.14-6.4,4.24-10,0.25-8.94,0-17.9-.08-26.85,0-.09,0-0.18,0-0.27-0.07-5.66-.63-6.58-6.14-7.41-2.61-.39-2.93-1.76-3-3.81-0.11-2.71,0-5.6,3-6.37,2.77-.69,5.85-0.12,8.66-0.71,3-.64,6.3,1.34,9.16-1.16a4.94,4.94,0,0,1,3.78-1.17,4.67,4.67,0,0,1,2.93,2.76c0.82,3,.79,3.22,3.76,1.91a23.77,23.77,0,0,1,3.87-1.73c0.86-.2,1.88.34,3,0.6,1.39-4.27,5.26-3,8.47-3.24a18.42,18.42,0,0,1,4,.07c1.24,0.16,3-.51,3.14,1.9,0,0.37,1.93,1.08,2.82.91,2.7-.52,5.33-1.41,8.17-2.2l0.26,1.11c3.64-.55,7-1,10.41-1.58,0.74-.12,1.45-0.72,2.16-0.71,1.88,0,3.92-.23,4.81,2.26,0.61,1.72,1.52,3.39,3.53,1,0.41-.5,1.48-0.44,2.23-0.69,2.86-1,5.71-1.93,9-3l0.77,1a2.39,2.39,0,0,0,.66-0.32c1.5-1.4,2.76-2.1,4.61-.14,0.75,0.8,2.76.28,4.09,0.69a15.75,15.75,0,0,1,4.81,2.14c2.25,1.68,5,2.55,6.9.75,3.1-3,7-2.89,10.65-3.58,0.49-.09,1.13.65,1.65,1,3.13-2.62,6.33-3,9.9-1,1,0.56,2.41.33,3.6,0.61,4.85,1.12,7.73,4.25,9.18,8.94,0.64,2.06,1.69,4,2.46,6a6.72,6.72,0,0,1,.11,1.82c0.1,1.38.22,2.76,0.4,4.88-2,2-.67,5-0.3,8.19,0.41,3.47,1.72,7.19-.44,10.66a1.87,1.87,0,0,0,0,1.69c1.25,1.69,1,3.27.55,5.25a9.53,9.53,0,0,0,.63,5.68,4.78,4.78,0,0,0,5,2.83c2.1-.13,3.52,2.55,3.24,5.57-0.21,2.25-1.17,3.09-3.7,3-5.07-.21-10.17.25-15.26,0.28-8.78,0-17.57-.1-26.36,0-7.49.05-15,.37-22.46,0.42-5.78,0-11.56-.24-17.34-0.25-7.59,0-15.18.05-22.77,0.23-2.38.06-2.87-.86-2.63-3s0-4.33,2.44-5.54c3,0.86,5.49-1.27,5.47-4.59,0-2.14.56-4.3,0.45-6.43-0.12-2.39-.75-4.76-1.1-7.14a8.81,8.81,0,0,1-.06-2.13,178.89,178.89,0,0,0,.38-20.69,4.32,4.32,0,0,0-4.62-4,2.87,2.87,0,0,0-1.54,1.58c-0.5,1-.49,2.39-1.17,3.22a4.85,4.85,0,0,1-3,1.8c-3.74.18-7.52-.22-11.25,0.07a6.6,6.6,0,0,1-5.12-1.64,4.61,4.61,0,0,0-6.12-.1A3.91,3.91,0,0,0,838,84.51c1,8.52.35,17.07,0.56,25.6,0.07,2.74-.05,5.5.21,8.23a3.6,3.6,0,0,0,1.77,2.47c1.67,0.77,3.65.88,5.31,1.67,0.9,0.43,1.44,1.67,2,2.61s1,1.88,1.54,2.9c-1.63,4.87-5.65,4.09-9.52,3.92-3.46-.15-6.94-0.07-10.41,0-5.36,0-10.77.66-16,0a31.29,31.29,0,0,0-11.86,1.19c-5.55,1.41-11.42,1.57-17.15,2.29-1.87.23-2.73-.7-3.17-2.4s-1.3-2-2.77-.93c-4.35,3-9.33,3.5-14.46,3.48a20.19,20.19,0,0,1-11.21-3.33A17.43,17.43,0,0,1,746,124c-2.42-5.77-3.17-11.85-1.24-17.92a15.82,15.82,0,0,1,3.38-5.5,59.15,59.15,0,0,1,6.35-5.73,5.69,5.69,0,0,1,2.3-.88q4.16-1,8.35-1.87a16.82,16.82,0,0,1,3.64-.54c3.22,0,6.44.31,9.65,0.35a2,2,0,0,0,1.57-1c0.22-4.14,1.3-8.54-1.44-12.16-1-1.28-3.14-2-4.87-2.26-2.34-.35-3.61,1.17-4.18,3.53-0.92,3.78-2.64,4.82-6.69,4.85-3.4,0-6.8.29-10.2,0.38-2.7.08-3.45-.83-3.31-3.53,0.11-2.14-.2-4.34.14-6.43,0.22-1.33,1-3.21,2-3.65,7.83-3.36,15.7-6.74,24.54-6.26,2.21,0.12,4.43,0,6.63.16A17.76,17.76,0,0,1,786.08,66.63Zm143.27,48.25-0.57.11c0.46,1.23.56,3,1.43,3.58,3.45,2.07,6.9,4.87,11.37,2.65,1-.5,1.85-1.59,2.88-1.78,2.45-.45,2.92-2,2.94-4.07,0.05-6.33.18-12.66,0.19-19a28.54,28.54,0,0,0-.44-7.08,33.92,33.92,0,0,0-3.23-7.63,6,6,0,0,0-3-2.29,25.69,25.69,0,0,0-4.44-.89c-5.89-1.18-9.13,1.83-8.52,7.69,0.58,5.58,1,11.18,1.33,16.78C929.51,106.92,929.35,110.9,929.35,114.87ZM899,79a20.73,20.73,0,0,1-3.23.36c-1.81-.09-2.38.78-2.33,2.43,0.18,6.3-1.08,12.58-.2,18.91,0.31,2.21-.11,4.51-0.1,6.78,0,3,0,6,.21,9,0.19,2.25.72,4.54,3.83,4.46a81.13,81.13,0,0,0,9.15-.28c1.79-.25,2.92-1.65,2.85-3.92-0.13-4,.13-8,0.18-12,0.06-5.65.16-11.31,0.05-17-0.06-3.19-1.45-5.9-4.48-7.2A34.63,34.63,0,0,0,899,79ZM780.07,112.13h0.05c0-2.23.05-4.47,0-6.7,0-1.32-.39-2.7-2.16-2.3-3.25.72-6.46,1.61-9.67,2.45a1.28,1.28,0,0,0-.63.48c-1.13,1.55-2.59,3-3.23,4.71-0.39,1,.49,2.57.84,3.87,1.32,4.79,2.64,6,7,6.44,0.94,0.09,1.94-.19,2.85,0,3.58,0.7,5.07-.5,5-4.12C780,115.35,780.07,113.74,780.07,112.13Z"/><path d="M428.82,72.1c0.55-1.75,1-3,1.31-4.26a16.82,16.82,0,0,0,.14-3c0.16-5.86.09-5.71-5.15-8.19a10.72,10.72,0,0,1-4.05-3.94c-1-1.56,1.7-4.65,4.05-4.62,10.1,0.15,20.21.48,30.31,0.63,5.28,0.08,10.56-.06,15.83-0.14,4.38-.07,8.77-0.22,13.15-0.29a4.69,4.69,0,0,1,4.79,4.94c-0.16,4-.63,8-0.52,11.94,0.07,2.72-1.6,3.41-3.43,3.47a80,80,0,0,1-11.64-.39c-1.15-.13-2.49-1.45-3.13-2.58-0.93-1.66-1.05-3.79-2-5.41a4.67,4.67,0,0,0-3.24-2c-3.58-.19-7.17.1-10.76,0.13-1.74,0-2.29.75-2.24,2.49,0.16,5.48.15,11,.18,16.46,0,2.94,1.33,4,4.19,3.61,1.44-.19,3,0.26,4.4,0,2.71-.49,5.75-4.53,5.88-7.89,2.38,0.88,4.55-1.36,7.2.14,1.2,0.68,3.18.29,4.73,0a2.55,2.55,0,0,1,3.23,2,19.19,19.19,0,0,1,1.12,5.45c0.07,5.61-.09,11.23-0.21,16.85-0.06,2.64-3.31,5.59-5.92,5.51-1.86-.06-3.72-0.09-5.58-0.07-3.43,0-6-2-6.69-5.72-0.41-2.18-1.48-2.77-3.53-2.65a19.55,19.55,0,0,1-4.48-.43c-2.76-.49-4.26.62-4.39,3.36-0.22,4.69-.49,9.39-0.65,14.08,0,0.85.51,1.71,0.52,2.56a6.26,6.26,0,0,1-.56,2.55c-0.51,1.11.45,3.17,1.72,3.18,4.73,0,9.46,0,14,0l5.16-11.2a20.81,20.81,0,0,1,3.54-.65c3.22-.08,6.58-0.51,9.61.27,1.31,0.34,2.64,3.25,2.75,5.07a88.27,88.27,0,0,1-.42,13.06c-0.14,1.6,1.63,4-1.29,4.78a21.22,21.22,0,0,1-5.19.78c-6.72.09-13.54-.69-20.13,0.24-6.95,1-13.73-.5-20.63.11s-13.76-.22-20.64-0.33c-4.71-.08-9.43-0.15-14.13,0-5.55.18-10.3-1.13-13.14-6.34-2.95-5.4-5.86-10.82-8.66-16.3-1.88-3.68-3.5-7.5-5.35-11.2a17.79,17.79,0,0,0-2.54-2.9,24.29,24.29,0,0,0-.86,4.05c-0.1,5-.06,9.94-0.09,14.91,0,1-.23,1.91-0.19,2.86,0.06,1.67-.19,3.51,2.65,3.05,1.85-.3,5.08,3.15,5.13,5.06,0,0.18,0,.36,0,0.54-0.13,5.4-.68,5.88-6,5.93-9.27.09-18.53,0.38-27.79,0.26-1.55,0-3.49-1.4-4.49-2.72s-0.49-3.16.61-4.91c1.46-2.32,3.67-3.12,5.87-3.69,1.63-.43,2-1.09,2.06-2.49,0-3.74.15-7.48,0.12-11.22-0.05-6.41-.91-12.92-0.11-19.22,1.08-8.49,0-16.91.47-25.35,0.25-4.21-.89-5.19-5.08-5.29-2.17,0-4-2.43-3.94-5.34,0-2.4,1.6-3.07,3.69-3.17a3.93,3.93,0,0,0,1.3-.56,4,4,0,0,1,1.57-.71c5.66,0.44,11.31,1.25,17,1.37s11.14-.57,16.71-0.67c2.93-.05,5.87.41,8.81,0.59,0.92,0.05,1.86-.17,2.78-0.1a12,12,0,0,1,3.55.56c2,0.8,4.39,1.43,5.73,2.93,2.65,3,5.12,6.2,5.16,10.61,0,2.32,1.07,4.69.8,6.93a63.61,63.61,0,0,1-2.38,9.37c-1.21,4.33-5.06,6.32-8.15,8.92a31,31,0,0,1-5,2.85c2.14,2.55,4.54,5.22,6.69,8.08a7.46,7.46,0,0,1,1.62,4.1c0,2.31,1.75,3.32,2.71,4.92,1.52,2.52,2.94,5.09,4.33,7.68,2.28,4.24,5.82,6.8,10.57,6.74,2.46,0,4.93-1.4,7.35-2.28a1.91,1.91,0,0,0,.47-1.42q0.13-13.36.2-26.72c0-5.63.05-11.26-.11-16.89C430,73.81,429.13,72.74,428.82,72.1ZM381.1,82c1.17-.64,4.07-1.42,5.67-3.31s1.84-4.81,2.59-7.3c1.69-5.61-2-11.77-7.45-12.4a7.06,7.06,0,0,1-2.37-.35c-2.27-1.18-3.15.47-3.43,2a46.55,46.55,0,0,0-.58,7.8c0,3,.34,6,0.14,9C375.43,81.15,375.83,81.82,381.1,82Z"/><path d="M592.07,132c-5,0-10,0-14.93,0-2.5,0-5,.21-7.5.22a3.29,3.29,0,0,1-2.12-.56c-2.33-2.24-1.39-9.25,1.48-10.72,1-.52,2.4-0.31,3.49-0.74a3.08,3.08,0,0,0,1.43-1.74c0.72-2,.62-4.94,2-6,2.73-2.17,1-5,2-7.21a80.11,80.11,0,0,0,3.35-7.45c1.4-4,2.43-8.21,3.77-12.27,1.43-4.32,3.15-8.55,4.56-12.88,1.7-5.23,3.15-10.54,4.83-15.77a38.94,38.94,0,0,1,2.71-6.37,3.24,3.24,0,0,1,2.34-1.36c2.66-.14,5.33,0,8,0,3.92,0,7.85,0,11.77-.12a3.92,3.92,0,0,1,4,3q3.85,11.13,7.44,22.36c0.85,2.68,1.14,5.54,2,8.22,1.47,4.69,3.34,9.25,4.74,14s3.79,9.17,4.17,14.27a21.86,21.86,0,0,0,2.12,7.92c0.82,1.66,2.83,3.78,4.35,3.81,3.08,0.05,2.88,2.41,3.63,3.88,1.81,3.55.43,5.6-3.59,5.62-5.18,0-10.37-.18-15.55-0.17-4.45,0-8.9.23-13.35,0.25-3.45,0-4.08-.77-4.76-5.36-0.29-2,1.3-3.65,3.67-4.48a19.26,19.26,0,0,0,4.1-2.41,1.36,1.36,0,0,0,.3-1.17c-0.37-1.63-.87-3.23-1.27-4.85-0.69-2.81-1.21-5.67-2.07-8.42a3.23,3.23,0,0,0-2.18-2c-6-.11-11.94,0-17.91.1-3.62.07-4.13,0.91-4.9,4.42a48.86,48.86,0,0,1-3.1,8.88c-0.86,2-.69,2.9,1.41,3.91,3.17,1.53,7.05,2.54,7.14,7.35,0,2.25-.9,3.9-3.25,4-1.43.09-2.86,0-4.29,0V132Zm16.11-66.33c-0.71.39-1.86,0.62-2.11,1.22-1,2.41-2.24,4.91-2.39,7.44a29.2,29.2,0,0,1-3.59,12.07c-0.91,1.72-.24,3.43,1.27,3.54,2.61,0.2,5.22.44,7.84,0.51a10.25,10.25,0,0,0,3.69-.5A2.22,2.22,0,0,0,614,88.06c-1-3.35-2.29-6.59-3.16-9.95C609.79,74.17,609.11,70.14,608.18,65.65Z"/><path d="M721.51,82.55l2.56-5.85c3.69-1.92,7.94-1.26,12.08-1,2.65,0.13,4.1,2,4.1,4.7,0,1.79-.14,3.58-0.22,5.37a2.34,2.34,0,0,0-.1.77c3.1,2.22-.17,4.5,0,6.76a59.39,59.39,0,0,1,.1,8c-0.1,2.52-2.16,3.75-6.06,3.83-1.85,0-3.72.08-5.56,0-2.27-.15-4.1-0.72-5-3.4-1.65-5.2-5.93-7-11.21-5A3.11,3.11,0,0,0,711,99.07c-0.22,4.28-.28,8.58-0.34,12.87,0,3.16,0,6.32,0,9.68,3.45,2,9.28.61,10.18,7.17a10.22,10.22,0,0,0-.5,1.87c-0.34,2.54-2,3.46-4.29,3.5-3.57.06-7.14,0-10.7-.07-7.44-.07-14.87-0.19-22.31-0.18-1.7,0-2.8-.29-2.82-2.25,0-1-.28-1.95-0.32-2.93-0.16-4,.37-4.68,4.29-5.83s4.93-3,4.74-7.07c-0.27-5.7-.2-11.42-0.21-17.14,0-10,0-19.93,0-29.89a26.72,26.72,0,0,0-.43-6.29,6.66,6.66,0,0,0-2.54-3.13c-0.93-.71-2.31-0.8-3.34-1.42-3-1.79-3.81-4.5-2.32-7.65a2.22,2.22,0,0,1,1.65-1c4.73-.17,9.46-0.27,14.19-0.32,4.53-.05,9.06,0,13.59,0,4.2,0,8.4.09,12.6,0.13l17.59,0.15c4.69,0,6.33,1.66,6.43,6.42,0.07,3.57.09,7.14,0.11,10.71,0,3.35-.9,4.26-4.28,4.29-2.24,0-4.48,0-6.72,0-5.1.21-8.89-2.8-10.11-7.79-0.25-1-1.45-2.42-2.34-2.52a68.36,68.36,0,0,0-9.63-.26c-3.46.1-2.6,2.94-2.66,4.9-0.1,3.77.06,7.56,0.15,11.34a22.84,22.84,0,0,0,.35,4.45,3.55,3.55,0,0,0,1.59,2,13.83,13.83,0,0,0,3.69,1.48,4.27,4.27,0,0,0,2.26-.31A31.19,31.19,0,0,0,721.51,82.55Z"/><path d="M535.35,110.06L544,81.43a3.1,3.1,0,0,0,.67-1.26,44.58,44.58,0,0,1,.55-4.76c0.38-1.34,1.48-2.46,2-3.78q1.76-4.78,3.22-9.67c0.49-1.64.81-3-2.06-2.91-4,.13-7-6.14-4.77-9.4a2.8,2.8,0,0,1,2.07-.85c6.89,0.07,13.78.26,20.67,0.36,2,0,3.93-.16,5.9-0.16,1.57,0,3.15.17,3.53,2.13,0.68,3.47-.17,5.83-2.42,6.64a9.28,9.28,0,0,0-6.18,6.39,66,66,0,0,1-3.34,7.53,2.86,2.86,0,0,0-.4,1.25c0.37,4.71-2.26,8.66-3.81,12.72-0.84,2.2-.72,5-1.92,6.35-1.7,1.9-1.64,3.94-2.28,5.92-1.1,3.39-1.93,6.87-3,10.25-0.76,2.32-2,4.49-2.71,6.81-1.06,3.38-3.45,6.22-3.23,10.18,0.11,1.9-1.23,4.25-2.61,5.75-0.92,1-3.07,1.15-4.68,1.19-4.82.12-9.65,0.07-14.46-.07-3.58-.1-4.57-1.27-5.63-4.72a43.83,43.83,0,0,0-3-6.15,6.47,6.47,0,0,1-.46-1.2c-0.91-3.45-1.75-6.92-2.71-10.37-0.8-2.89-1.66-5.77-2.6-8.62-1.42-4.29-2.93-8.56-4.41-12.83a6.75,6.75,0,0,1-.67-2c0-3.77-1.73-6.9-3.25-10.2-1.18-2.56-1.62-5.46-2.41-8.21-0.72-2.52-1.15-5.2-2.34-7.48-0.68-1.31-2.53-2.14-4-2.86-2.21-1.07-3.94-6-2.46-8a3.21,3.21,0,0,1,2.27-.77c8.39-.14,16.78-0.25,25.17-0.25a39.47,39.47,0,0,1,6.71.64c2.09,0.36,3.14,2.75,1.9,4.9a15.89,15.89,0,0,1-3.83,4,33.78,33.78,0,0,1-3.76,2.46c0.24,1.81.37,2.87,0.52,3.93a2.18,2.18,0,0,0,.25,1.21c2.37,1.29,1.49,3.6,1.94,5.54,0.56,2.37,1.83,4.57,2.59,6.91,1,3.06,1.75,6.2,2.7,9.28,0.69,2.23,1.61,4.39,2.27,6.63,1.11,3.75,2,7.55,3.15,11.29,0.49,1.65,1.28,3.22,1.94,4.82Z"/><path d="M1000.48,68.73l2.42-3.4a4.68,4.68,0,0,1,.39,1c-0.08,1.11-.19,2.22-0.29,3.33,1.1-.39,2.4-0.52,3.25-1.22,1.45-1.2.52-2.37-.55-3.37a2.46,2.46,0,0,1-.74-1.64c1.12,0.12,2.57-.13,3.24.48s0.18,2,.23,3.1,0.12,2.24.18,3.36c1.27-.59,3-0.85,3.72-1.84a7.3,7.3,0,0,1,12.26.55c0.31,0.53,1.12.93,1.15,1.42a5.23,5.23,0,0,1-.51,2.86,16.63,16.63,0,0,1-2.68,2.73l4.6,2.19c-2.06.83-3.49,1.75-5,1.85-0.69.05-1.79-1.32-2.2-2.27a41,41,0,0,1-1.56-5.32,5.13,5.13,0,0,0-.58-2,5,5,0,0,0-2-.76,8.88,8.88,0,0,0,0,1.89,55,55,0,0,1,1.33,6.1c0.08,0.87-.87,1.84-1.2,2.46-1.87-1-3.24-1.57-4.52-2.34a2.26,2.26,0,0,1-1-1.41c-0.44-3.26-3-4.21-5.54-4.61a8.69,8.69,0,0,0-8,2.67c-1.53,1.69-.16,7.33,1.82,8.48,1.37,0.8,2.66,1.75,4,2.57,2.1,1.27,4.22,2.5,6.34,3.75a3.49,3.49,0,0,1,1.34.86c2.41,4.46,7.73,3.77,11.16,6.4a13.94,13.94,0,0,1,3,2.37c1.36,1.86,3,3.82,3.43,6s1.93,4.18,1.26,7.17a52,52,0,0,1-2.74,9.52c-1.37,3.14-3.52,5.72-7,6.78s-6.81,2.47-10.32,3.19c-7.53,1.54-14.83,0-22-2.42-0.83-.28-1.63-0.65-2.46-0.91-4.37-1.38-4.69-1.86-4.78-6.57,0-2.26-.27-4.51-0.45-6.76a2.65,2.65,0,0,1,3.59-2.25c1.44,0.78,2.45.57,3.91-.1,3.87-1.78,8.92.63,10.36,4.71,1,2.83,2.77,4.64,5.84,5.12,2.15,0.34,7-2,8.53-4.37,1.31-2,1.08-4.49-1.29-6.94a48.66,48.66,0,0,0-6.39-5c-6.41-4.7-14.25-7.24-19.76-13.34a13.47,13.47,0,0,1-3.34-13.08c0.49-2,.51-4.18,1.4-6a12.56,12.56,0,0,1,3.82-4.05,58.9,58.9,0,0,1,7-4.36,2.93,2.93,0,0,1,2.21.38C997.06,66.63,998.71,67.68,1000.48,68.73Zm-15.57,5.82,0.68,0.78,3.33-.27L988,71.19Zm35.54-3.19,0.57,0.52c0.5-.46,1.41-0.9,1.42-1.37a11,11,0,0,0-.68-2.92l-0.64.18Z"/><path d="M521,163.1a17,17,0,0,0-1.25,2.57c-0.67,2.69-1.32,5.38-1.85,8.1-0.49,2.55-2.4,2.4-4.31,2.63s-2.78-.49-3.2-2.3c-0.94-4.05-2-8.07-3-12.11l-1.09.06q0,4.47,0,8.93c0,1,0,2,0,3-0.13,1.57-.62,2.83-2.6,2.66-1.82-.15-3.46-0.46-3.4-2.84,0.13-4.91.27-9.83,0.35-14.74,0.05-2.85.13-5.7,0-8.54-0.1-1.77.66-2.23,2.19-2.18,0.81,0,1.61,0,2.42,0,3.9-.11,4.87.75,5.74,4.47s1.94,7.34,2.93,11l0.8,0c0.78-3.15,1.71-6.28,2.3-9.46,1.11-5.95,4-7.81,9.59-5.6a3.3,3.3,0,0,1,1.32,2.59c0,7.51-.11,15-0.22,22.53,0,1.56-.45,2.9-2.39,2.89s-3.54-.24-3.57-2.63c0-2.91,0-5.82,0-8.74A12.25,12.25,0,0,0,521,163.1Z"/><path d="M396,162.44c0-4.3,0-8.2,0-12.09,0-1.9.61-2.59,2.76-2.37,4.61,0.47,9.28.36,13.9,0.78s7.2,6.59,4.4,10.3c-1,1.35-1.25,2.33.15,3.36,3.32,2.43,2.48,5.79,1.64,8.83-0.88,3.22-3.55,4.88-6.84,5-4.46.17-8.93,0-13.39,0.09-2.66.06-3.17-1.53-3.09-3.63C395.61,169.15,395.81,165.6,396,162.44Zm9.72,7.81c1.84,0,3,.28,3.94-0.07a15.16,15.16,0,0,0,3.11-2.12c-0.89-1-1.63-2.6-2.71-2.87a28.19,28.19,0,0,0-6.81-.45,1.94,1.94,0,0,0-1.11,1.26c-0.91,3-.09,4.1,3,4.21C405.58,170.22,406,170.27,405.69,170.24Zm0.46-11.5a21.93,21.93,0,0,0,4.14-.85,2.5,2.5,0,0,0,1.35-2,3,3,0,0,0-1.91-1.89,18.25,18.25,0,0,0-5.3,0,3,3,0,0,0-1.81,1.66C401.76,157.76,402.55,158.36,406.15,158.74Z"/><path d="M450.34,175c-0.7.22-1.35,0.4-2,.63-4.79,1.72-8.58.31-10.65-4.27-1.9-4.2-1.33-11.95,3.19-14.88,2.44-1.59,4.63-1.3,7.1-.88a10.72,10.72,0,0,0,4,.17c3.54-.81,4.74,0,4.75,3.66,0,4.64.09,9.28-.11,13.91a30.1,30.1,0,0,1-1.23,6.81,4.09,4.09,0,0,1-2,2.33c-4.58,2-9.37,2.59-13.81-.1-1.22-.74-1.64-3-2.17-4.58a2.54,2.54,0,0,1,1.68-1.39,25.14,25.14,0,0,1,5.76,1.78C447.7,179.57,450.39,178.22,450.34,175Zm0.41-9.71c0-2.57-1.25-4.13-3.21-4.12a4.34,4.34,0,0,0-4.61,4.71,5.32,5.32,0,0,0,4.19,4.85C449,171,450.88,167.63,450.75,165.32Z"/><path d="M683.85,176.76c-1.4-.25-3.53-0.53-5.61-1.05-2.46-.62-5.58-4.61-5.44-7.06a2.62,2.62,0,0,1,1.75-1.74c1.41-.27,3.06-1.19,4.06,1.11,1.55,3.59,7,4.57,9.53,1.9,1.59-1.67,1.34-3-.86-3.77-2.69-1-5.5-1.59-8.14-2.66-6-2.45-7.35-8-3.12-12.63s15-3.05,17.43,2.81c0.45,1.08,1.56,2.36-.31,3.13s-3.78,1.52-5-.59c-1.5-2.62-3.74-2.82-6.19-2.41-0.83.14-1.53,1-2.29,1.6,0.56,0.71,1,1.76,1.7,2.06a76.1,76.1,0,0,0,7.27,2.46,8.27,8.27,0,0,1,6,10.16c-0.9,4-5,6.76-9.82,6.67h-1Z"/><path d="M906.57,167.28c-0.18,3.48-.27,7-0.57,10.44s-1.77,5.29-5.18,5.74a67,67,0,0,1-8.41.12,0.4,0.4,0,0,1-.26-0.06c-1.45-1.47-2.92-2.92-4.3-4.45a2.11,2.11,0,0,1,.61-1.22c1.94,0.35,4.09.43,5.73,1.37,1.83,1,3.48,1.77,5.13.39a5.63,5.63,0,0,0,1.65-3.3c0.22-1.46-.73-1.82-2.08-1.2-5.78,2.67-9.89.81-11.41-5.44-1.21-5-.26-10,4.35-12.39a6.86,6.86,0,0,1,6.92-.05c1.18,0.67,2,1.34,3.42,0,1.7-1.58,4.08-.14,4.14,2.27,0.06,2.59,0,5.19,0,7.78h0.26Zm-14.23-1c-0.11,3.22,1.81,5.81,4.28,5.77,2.73,0,4.53-2.24,4.54-5.54s-2.26-6.26-4.61-6.25C894.44,160.28,892.45,163.14,892.35,166.3Z"/><path d="M642.52,157.05c-0.16-2.07-.16-3.77-0.45-5.41-0.42-2.33,1.11-3.23,2.79-3.44a2.69,2.69,0,0,1,3.14,2.59c0.14,1.94.1,3.89,0.08,5.83-0.07,5.8-.21,11.59-0.24,17.39,0,2.18-1,3.09-3,2.35a8.84,8.84,0,0,0-6.13,0c-6,2-9.27-2.63-10.16-7.29-0.43-2.29.12-4.78,0.3-7.17,0.34-4.52,5.76-6.87,9.8-5.72C639.76,156.52,640.9,156.7,642.52,157.05Zm-0.24,9.28c-0.14-.79,0-1.87-0.49-2.5-0.9-1.2-2-2.75-3.27-3-1-.21-3.3,1.08-3.46,2a18,18,0,0,0,.29,7.28c0.23,0.94,2.58,2.29,3.32,2,1.34-.57,2.27-2.21,3.2-3.53A5.85,5.85,0,0,0,642.28,166.33Z"/><path d="M548.93,176.68a49,49,0,0,0-5.32-1,8.59,8.59,0,0,0-3.55.54c-3.65,1.34-6.47.61-8.15-2.27-2-3.52-1.46-6.23,1.85-8.87a3,3,0,0,0,1.05-1.65,2.17,2.17,0,0,0-1.35-1c-2.3-.55-2.09-1.86-1.11-3.39,1.82-2.85,6.27-4.58,9.94-3.68,5.7,1.39,6.86,2.35,6.66,8.13C548.81,167.67,548.93,171.83,548.93,176.68Zm-6.58-6.4-0.14-.91c-0.75-.27-1.64-0.92-2.2-0.71a10.3,10.3,0,0,0-2.52,1.93c0.63,0.46,1.37,1.4,1.87,1.29A12.12,12.12,0,0,0,542.35,170.29Zm0.23-8.11c-3.06-1.93-5.19-1.18-6,2.37Z"/><path d="M584.42,161.74c-1.7-1.37-3.44-1.55-5.07.24s-3.34,1.23-4.69-.06c-1.64-1.56-.24-3,0.84-4.15,2.67-2.81,11.5-3.26,14-.3,1.26,1.49,1.41,4.1,1.61,6.25,0.29,3.1,0,6.24.27,9.35s-0.62,3.9-3.75,3.28a22,22,0,0,0-4.8-.12c-1.66,0-3.39.55-5,.25-3.57-.69-4.94-2.56-5-6,0-2.93,2.13-5.22,5.45-6,2.1-.48,4.16-1.11,6.24-1.68Zm-1.27,5.57-3.9,2.87c0.76,0.57,1.74,1.76,2.24,1.59a15.29,15.29,0,0,0,3.46-2.31Z"/><path d="M469.22,167.48c1.3-3.42,2.31-6.25,3.44-9,1-2.54,3-3.65,5.49-2.79,0.56,0.19,1.07,1.94.84,2.74a77.92,77.92,0,0,1-3,8.3c-2,4.83-3.9,9.73-6.31,14.37a6.66,6.66,0,0,1-8.15,2.88c-2-.79-1.81-2.44-1.45-3.81,0.18-.69,1.55-1.4,2.44-1.49,2.35-.24,3.72-1.71,2.93-4-1.57-4.52-3.39-9-5.1-13.44a5,5,0,0,1-.57-1.49c0-1.29-.39-3.13.28-3.75,1.38-1.25,4.46-.27,5.21,1.4,1.05,2.34,1.88,4.79,2.8,7.19C468.37,165.37,468.69,166.16,469.22,167.48Z"/><path d="M619.34,162.46c-2.25-1.78-3.74-2.33-5.73-.73a5.2,5.2,0,0,1-3.61.89c-2.06-.28-2.61-2.16-1.31-3.8a10.29,10.29,0,0,1,1.75-1.64c2.92-2.27,10-2.09,12.52.55a6.56,6.56,0,0,1,1.54,3.77c0.35,4,.2,8,0.67,12,0.31,2.66-1.17,3.66-2.95,3-3-1.13-5.69-.08-8.46.34-2.6.39-4.28-.68-5.68-2.6a7,7,0,0,1-.49-7.16c0.5-1.13,2.54-1.72,4-2.25C613.9,164,616.31,163.36,619.34,162.46Zm-1.95,4.7-4.05,3.12c0.75,0.69,2,2.1,2.18,2a15.12,15.12,0,0,0,3.26-3A9.93,9.93,0,0,0,617.4,167.16Z"/><path d="M793.87,176.89c-1.57-.35-3.23-0.82-4.91-1a5.68,5.68,0,0,0-2.48.41c-3.83,1.32-8.1.13-9.51-2.71a5.83,5.83,0,0,1,3.85-8.47c1.54-.42,3.23-0.35,4.74-0.84,0.87-.28,1.52-1.24,2.27-1.9a8.45,8.45,0,0,0-2.65-1.24c-0.87-.08-1.78.58-2.7,0.79a12.35,12.35,0,0,1-3.76.56c-0.43,0-1.23-1.93-1-2.11,1.48-1.43,3-3.46,4.82-3.73,2.67-.41,5.54.44,8.32,0.78,2.15,0.27,2.79,2.06,2.92,3.68,0.39,4.87.48,9.76,0.67,14.64A4.33,4.33,0,0,1,793.87,176.89Zm-7.46-10-4.14,3.87c0.69,0.69,1.29,1.79,2.1,2,1.59,0.39,3.87-1.58,3.69-3.06C788,168.93,787.25,168.26,786.41,166.89Z"/><path d="M753.19,166.64c-0.94-4.94,5-11.19,10.25-10.76,4.87,0.4,10.34,3.81,10.24,11.19a9.92,9.92,0,0,1-9.73,9.79C757.25,176.9,753.23,173.08,753.19,166.64ZM767.82,167c-0.06-3.78-1.92-6.48-4.4-6.42s-4.84,3.13-4.71,6.2c0.14,3.34,2,5.31,4.85,5.25C766.26,172,767.88,170.11,767.82,167Z"/><path d="M865.33,170.88a4.68,4.68,0,0,1,3.09-4.58c2.12-.87,4.47-1.2,6.59-2.07,0.93-.38,1.56-1.52,2.33-2.32-1.1-.44-2.23-1.3-3.28-1.2-1.25.12-2.37,1.34-3.64,1.57-1.09.2-2.32-.31-3.49-0.51,0.31-1,.31-2.4,1-3.06,2.84-2.78,6.54-2.86,10-2,4.48,1.18,5.49,3.44,5.3,9.22-0.08,2.48,0,5,.06,7.46,0.13,3-1.4,4.47-3.9,3-1.86-1.12-3.19-.52-4.74,0-2.9.89-5.59,0.48-7.67-1.7C866.09,173.72,865.86,172.16,865.33,170.88Zm12.1-1.63c-0.36-.31-1.27-1.52-1.71-1.37a30.82,30.82,0,0,0-4.63,2.4c0.82,0.88,1.64,2.51,2.45,2.5C875.16,172.75,877.26,172.48,877.44,169.25Z"/><path d="M710,166.14c0-2.41,0-4.82,0-7.23,0-2.9,1.89-4.12,4.3-2.48,1.48,1,2.4.72,3.85,0.13,4-1.67,9.91-.7,9.65,5.86-0.15,3.74.22,7.5,0.3,11.25,0,1.49-.37,2.63-2.24,2.62s-3.32,0-3.32-2.39c0-3.12-.14-6.25-0.05-9.37,0.05-2-.59-3.59-2.51-3.82a3.35,3.35,0,0,0-3.8,3c-0.43,3.18-.53,6.4-0.75,9.6-0.11,1.58-.17,3-2.43,3-2.74,0-3.25-.47-3.11-3.25,0.12-2.32,0-4.65,0-7H710Z"/><path d="M571.32,169c-0.62,7.11-8,9.36-13.49,7.14-4.31-1.76-5.55-5.41-5.64-9.73s0.91-8.21,5.39-10.24c4.17-1.89,10.29-.46,12.45,3,0.63,1,1.79,2.11.1,3.17-1.46.92-3.29,1.95-4.56,0.24-1.68-2.25-3.53-1.77-5.46-1-1.48.6-2.15,4.23-1.52,6.64a4.23,4.23,0,0,0,4,3.36,2.64,2.64,0,0,0,2.14-1.26c1-2.87,3-2.46,5.14-1.74C570.31,168.75,570.74,168.84,571.32,169Z"/><path d="M809.89,155.08a8,8,0,0,0,2.09,1.29c3.5,0.77,4.8,3.12,4.86,6.44,0.07,3.75.25,7.51,0.12,11.26,0,0.87-1.12,2.4-1.74,2.41-1.43,0-3.49.2-3.59-2.2-0.14-3.39-.13-6.79-0.32-10.18-0.14-2.6-1.67-4-3.7-3.44-2.58.75-3.15,3-3.27,5.29-0.14,2.68-.13,5.37-0.1,8,0,1.89-.71,2.77-2.69,2.79s-2.71-.79-2.68-2.73c0.08-4.92,0-9.85.07-14.77,0-2.55,2.29-4,4.12-2.33,2.26,2.07,3.39.55,4.91-.52Z"/><path d="M974.45,176.38c-1.11-.15-2.52-0.43-3.93-0.51a9,9,0,0,0-3.23.27c-2.68.88-5.21,1.79-7.64-.7-1.51-1.55-2.94-3-2.07-5.35s1.83-4.4,4.79-4.69a21.48,21.48,0,0,0,5.08-1.31,2.5,2.5,0,0,0,1.52-1.59,2.12,2.12,0,0,0-1.35-1.63,16,16,0,0,0-4.35.31c-1.44.27-2.84,0.81-4.87,1.42,0.49-3.15,1.56-5.29,3.71-5.58a27.28,27.28,0,0,1,8.88.38c2.86,0.57,3.21,3.48,3.37,5.78C974.66,167.33,974.45,171.51,974.45,176.38Zm-8.79-2.45c1.45-1.22,2.74-1.9,3.37-3,0.5-.84.18-2.16,0.22-3.27-1.22.15-2.45,0.28-3.66,0.47a1.72,1.72,0,0,0-1,.44c-0.7.77-2,1.87-1.84,2.35C963.18,172,964.38,172.7,965.66,173.93Z"/><path d="M923.92,175.29c-1.55.54-3.1,1.54-4.65,1.53-5.4,0-7.34-2.15-7.6-8.13-0.14-3.21.14-6.43,0.15-9.65,0-1.48.68-2.38,2.07-2,1,0.24,2.51,1,2.64,1.79a59.36,59.36,0,0,1,.43,7.48,21,21,0,0,0,.24,3.17c0.37,1.82.95,3.65,3.33,3.45a3.89,3.89,0,0,0,3.68-4c0.21-3,0-6.08.07-9.11,0-1.43-.33-3.28,2.14-3.16,2.08,0.1,3.27.79,3.19,3.22-0.16,4.65,0,9.3-.12,13.95,0,0.74-.62,2-1.08,2.1a21.59,21.59,0,0,1-4.32-.26Z"/><path d="M940.24,169.1c0,1.52,0,3,0,4.56-0.07,1.89-.84,2.84-3,2.83-2.37,0-1.81-1.65-1.83-2.78-0.12-5-.11-9.95-0.09-14.92,0-1.56,2-2.43,3.93-1.35,1.56,0.88,2.42.94,3.93-.28,3.12-2.52,9,.09,9.39,4.08s0.37,8.2.56,12.3c0.09,1.91-.72,2.74-2.68,2.77s-2.45-1-2.46-2.66c0-3-.06-5.9-0.17-8.85-0.11-2.74-1.44-4.29-3.47-4.21a4.13,4.13,0,0,0-4,4.23c0,0.89-.08,1.79-0.1,2.68,0,0.54,0,1.07,0,1.61h0Z"/><path d="M856.72,176.78c-3.39,0-6.78,0-10.17,0-1.81,0-2.9-.64-2.85-2.66,0.1-4.37.18-8.74,0.17-13.11,0-2.85-.17-5.7-0.33-8.55-0.13-2.23,1-3,3.06-3s2.76,1,2.73,3c-0.07,5.26,0,10.53-.05,15.8,0,2.45.8,3.84,3.65,3.65a49.9,49.9,0,0,1,8,.29,2.54,2.54,0,0,1,1.87,1.38c0.3,1.26.43,2.9-1.48,3.14a36.54,36.54,0,0,1-4.56,0v0.11Z"/><path d="M601.78,149.93c0.11,1.08.25,1.93,0.27,2.79,0,1.6.15,2.93,2.14,3.49,0.64,0.18,1.29,1.68,1.25,2.54a3,3,0,0,1-1.54,2.32c-1.69.42-1.81,1.39-1.77,2.76,0.06,2.38,0,4.77,0,7.31h3a30.92,30.92,0,0,1,.42,3.5,2.28,2.28,0,0,1-.65,1.64c-2.47,1.92-7.77.21-8.29-2.87s-0.39-6.38-.7-9.56a5.63,5.63,0,0,0-1.14-2.77c-1.44-1.84-1.27-3.7.63-5.25a2,2,0,0,0,.8-1.3C596,150.6,598.93,150.62,601.78,149.93Z"/><path d="M422.86,171.47c0-4.67,0-9.33,0-14,0-1.49.69-2.06,2.18-2,2.61,0.19,5.15.87,7.84-.24a2.36,2.36,0,0,1,3.44,2.22c0.06,2.35-1.15,3.77-3.16,3.74s-3.64,1.64-3.86,4.58c-0.17,2.32-.12,4.65-0.15,7-0.05,3.12-.76,3.82-4.08,3.76-2.61,0-2.09-2.16-2.29-3.74a10.48,10.48,0,0,1,0-1.34h0.1Z"/><path d="M749.29,162.76c0,3.75.13,7.51-.09,11.25-0.06,1-1.22,2.83-1.79,2.8-1.7-.1-3.89-0.18-3.82-3,0.13-5.17.13-10.34,0.19-15.52,0-2.22.1-4.45,0.08-6.67,0-2.38,1.53-2.7,3.39-2.81,2.07-.12,2,1.31,2.05,2.67,0,3.75,0,7.51,0,11.26h0Z"/><path d="M704.92,166.44c0,2.5-.07,5,0,7.51,0.05,1.46-.24,2.61-1.89,2.62s-3.68.11-3.72-2.1c-0.11-5.54,0-11.1.23-16.64,0.08-2,1.88-1.49,3.16-1.53a1.79,1.79,0,0,1,2.12,2.09c-0.06,2.68,0,5.37,0,8.05h0.1Z"/><path d="M738.62,166.39c0,2.5-.11,5,0,7.51s-1.65,2.66-3.15,2.47a3.2,3.2,0,0,1-2.12-2.26c-0.22-5.16-.1-10.34-0.18-15.51,0-1.95,1.2-2.13,2.63-2.2,1.61-.09,2.89.23,2.89,2.22q0,3.89,0,7.78h-0.1Z"/><path d="M654.89,176.7c-0.62-.33-1.59-0.56-1.65-0.93-0.23-1.5-.81-3.61-0.08-4.42s2.91-.6,4.46-0.74a1,1,0,0,1,.69.7c-0.45,2.93.84,6.14-1.38,8.76a3.27,3.27,0,0,1-1.66,1.24,3.46,3.46,0,0,1-2.37-.55c-0.26-.2.1-1.41,0.37-2.07A11.22,11.22,0,0,1,654.89,176.7Z"/><path d="M823.47,177.71a26.17,26.17,0,0,1-1.13-4.71,2.53,2.53,0,0,1,1.6-1.93c1-.11,2.54.21,3,0.91,1.82,2.6.69,7.23-2.06,9a7,7,0,0,1-2.52.46c0.29-.84.53-1.7,0.89-2.51a7.75,7.75,0,0,1,.88-1.28Z"/><path d="M482.53,170.19c2.89-.66,3,1.27,3.1,3.13,0.16,2.19-.95,3-3,3.07s-3.33-.72-3.4-3C479.11,170.93,479.94,169.57,482.53,170.19Z"/><path d="M702,148.8c1.77,0,3.2.2,3,2.45-0.14,1.94-.95,3-3,2.89-1.88-.06-2.7-0.86-2.71-2.81S700.27,148.61,702,148.8Z"/><path d="M735.93,154.14c-2.2.21-2.84-1.07-2.85-3s1.13-2.49,2.79-2.4,2.88,0.8,2.84,2.78S737.92,154.46,735.93,154.14Z"/><path class="cls-2" d="M168.2,186c-3.24.41-6.16,0.86-9.1,1.13a24.8,24.8,0,0,1-4-.15c-4.09-.28-8.18-0.7-12.28-0.84-2.6-.09-5.22.25-7.83,0.27a2.62,2.62,0,0,1-1.8-.85c-3-3.62-5.85-7.33-8.81-11-3.48-4.27-7.06-8.46-10.5-12.75-3.88-4.84-7.64-9.77-11.48-14.63-4.52-5.73-9-11.48-13.63-17.15A55.93,55.93,0,0,0,83.15,124a6,6,0,0,0-3.58-1.44c-7.76-.23-15.53-0.28-23.3-0.38-3.12,0-4.33,1.4-4.43,5.65-0.12,4.89,0,9.79-.13,14.68-0.2,7.82-.59,15.64-0.77,23.46-0.12,5,0,10,0,15s-0.76,5.54-5.49,5.47c-3.92-.06-7.85.15-11.77,0.42-2.67.18-4-1.08-4-4,0.2-8.91.28-17.83,0.57-26.74,0.27-8.29.92-16.57,1.12-24.86,0.25-10.07.18-20.15,0.3-30.22q0.31-25.62.68-51.24c0.08-6.24.24-12.48,0.21-18.72,0-5.63.23-5,5.93-5.21,8.82-.25,17.67.17,26.5,0.34,5.86,0.12,11.73.14,17.58,0.49,6.56,0.4,13.26.45,19.61,1.91s12.71,3.2,17.84,7.57c3.42,2.91,7.15,5.67,9.83,9.19,5.19,6.82,7.28,15,7,23.45-0.34,8.93-1.73,17.68-6.6,25.68A60.12,60.12,0,0,1,121,105.64c-4,4-8.77,6.43-13.85,8.49-2.89,1.17-3.43,2.87-1.5,5.32,3.36,4.25,6.74,8.5,10.17,12.69,4.67,5.69,9.44,11.3,14.1,17s9.08,11.37,13.71,17a73.22,73.22,0,0,0,5.88,6.12,2.4,2.4,0,0,0,2.1.59,3.87,3.87,0,0,0,1.27-2.16c0.7-2.44,1.27-4.91,1.91-7.37,0.27-1,.66-2.05.88-3.1,1.07-5.2,1.94-10.45,3.17-15.61,2-8.19,4.19-16.32,6.21-24.5,1.3-5.25,2.37-10.55,3.64-15.8,1.13-4.64,2.5-9.22,3.57-13.87,0.89-3.88,1.25-4.61-3-4.59-2.06,0-4.11,0-6.17-.11s-3-.77-2.31-3c1.12-3.56,2-7.2,3.16-10.75A2.87,2.87,0,0,1,166,70.43a41.68,41.68,0,0,1,6.71,0c3.63,0.28,3.85.12,5-3.26,1.86-5.65,3.46-11.43,5.93-16.82a44.6,44.6,0,0,1,13-16.95,41.93,41.93,0,0,1,21-8.46c4.28-.55,8.36-1.14,12.72-0.39,4.67,0.8,9.47.77,14.21,1.15,1.72,0.14,3,1,2.77,2.9-0.32,2.26-1,4.48-1.47,6.72-0.26,1.12-.55,2.23-0.8,3.36-0.39,1.76-1.1,3.42-3.21,3.17-4.15-.5-8.25-1.55-12.4-1.81a43.81,43.81,0,0,0-10.74.63A36.69,36.69,0,0,0,210,43.8c-4.93,2.32-7.73,6.52-9.48,11.54-0.61,1.74-1.51,3.39-2.08,5.14-0.78,2.4-1.36,4.87-2.07,7.29-0.59,2,.22,2.91,2.21,2.91,5.3,0,10.59-.1,15.89,0,4.37,0,8.75.12,13.11,0.42A2.33,2.33,0,0,1,229.94,74c-0.86,3.82-1.75,7.63-2.8,11.39a2.46,2.46,0,0,1-2,.89c-7.2-.24-14.39-0.66-21.59-0.85a40.79,40.79,0,0,0-9.27.54c-2.46.51-2.83,3.24-3.43,5.34-0.75,2.62-1.22,5.32-1.85,8-0.92,3.9-1.82,7.81-2.83,11.69-0.92,3.51-2.09,7-2.94,10.48-0.67,2.77-1,5.62-1.53,8.43-0.42,2.27-.8,4.55-1.4,6.77-1.69,6.27-3.63,12.49-5.2,18.79-1,4-1.37,8.16-2.29,12.18-0.66,2.88-1.91,5.61-2.63,8.48C169.37,179.46,168.82,182.87,168.2,186ZM115.46,70.78c-0.43-2.64-.7-4.74-1.13-6.8-0.79-3.79-2.27-7.47-5-10.07a32,32,0,0,0-20.61-9c-5.48-.28-11,0-16.48-0.12-4.9-.08-9.79-0.34-14.69-0.48-1.88-.05-4,0.24-4.18,2.43-0.32,5-.22,10.07-0.22,15.1,0,2.74.29,5.48,0.24,8.22-0.19,11-.51,21.91-0.58,32.87a3.42,3.42,0,0,0,2.42,2.32c7.19-.57,14.38,1,21.52,0,6.28-.85,12.79-0.46,18.75-3.19,1.21-.55,2.42-1.11,3.66-1.6,7-2.76,11-8.54,13.43-15.07C114.36,80.72,114.61,75.4,115.46,70.78Z"/><path class="cls-2" d="M929.35,114.87c0-4,.17-8,0-11.92-0.29-5.6-.75-11.2-1.33-16.78-0.61-5.86,2.63-8.87,8.52-7.69a25.69,25.69,0,0,1,4.44.89,6,6,0,0,1,3,2.29,33.92,33.92,0,0,1,3.23,7.63,28.54,28.54,0,0,1,.44,7.08c0,6.33-.14,12.66-0.19,19,0,2.08-.49,3.62-2.94,4.07-1,.19-1.87,1.28-2.88,1.78-4.47,2.21-7.93-.58-11.37-2.65-0.88-.53-1-2.35-1.43-3.58Z"/><path class="cls-2" d="M899,79a34.63,34.63,0,0,1,5.92,1.47c3,1.3,4.42,4,4.48,7.2,0.1,5.65,0,11.31-.05,17,0,4-.31,8-0.18,12,0.07,2.27-1.06,3.66-2.85,3.92a81.13,81.13,0,0,1-9.15.28c-3.11.08-3.64-2.2-3.83-4.46-0.25-3-.2-6-0.21-9,0-2.26.41-4.57,0.1-6.78-0.88-6.33.38-12.61,0.2-18.91,0-1.65.52-2.52,2.33-2.43A20.73,20.73,0,0,0,899,79Z"/><path class="cls-2" d="M780.07,112.13c0,1.61,0,3.22,0,4.82,0.06,3.63-1.43,4.82-5,4.12-0.92-.18-1.91.1-2.85,0-4.33-.42-5.65-1.66-7-6.44-0.36-1.3-1.23-2.82-.84-3.87,0.64-1.73,2.1-3.17,3.23-4.71a1.28,1.28,0,0,1,.63-0.48c3.22-.84,6.43-1.73,9.67-2.45,1.77-.39,2.12,1,2.16,2.3,0.07,2.23,0,4.47,0,6.7h-0.05Z"/><path class="cls-2" d="M381.1,82c-5.26-.19-5.67-0.86-5.43-4.55,0.2-3-.19-6-0.14-9a46.55,46.55,0,0,1,.58-7.8c0.28-1.51,1.15-3.16,3.43-2a7.06,7.06,0,0,0,2.37.35c5.47,0.62,9.14,6.79,7.45,12.4-0.75,2.5-1,5.46-2.59,7.3S382.26,81.38,381.1,82Z"/><path class="cls-2" d="M608.18,65.65c0.93,4.5,1.61,8.53,2.63,12.47,0.87,3.36,2.21,6.6,3.16,9.95a2.22,2.22,0,0,1-1.09,1.87,10.25,10.25,0,0,1-3.69.5c-2.61-.08-5.23-0.31-7.84-0.51-1.52-.12-2.19-1.82-1.27-3.54a29.2,29.2,0,0,0,3.59-12.07c0.15-2.53,1.4-5,2.39-7.44C606.32,66.27,607.47,66,608.18,65.65Z"/><path class="cls-2" d="M984.91,74.54L988,71.19,988.92,75l-3.33.27Z"/><path class="cls-2" d="M1020.45,71.35l0.68-3.58,0.64-.18a11,11,0,0,1,.68,2.92c0,0.47-.92.91-1.42,1.37Z"/><path class="cls-2" d="M405.69,170.24c0.33,0-.11,0-0.56,0-3.11-.11-3.93-1.21-3-4.21a1.94,1.94,0,0,1,1.11-1.26,28.19,28.19,0,0,1,6.81.45c1.08,0.27,1.82,1.87,2.71,2.87a15.16,15.16,0,0,1-3.11,2.12C408.7,170.52,407.53,170.24,405.69,170.24Z"/><path class="cls-2" d="M406.15,158.74c-3.6-.38-4.39-1-3.53-3a3,3,0,0,1,1.81-1.66,18.25,18.25,0,0,1,5.3,0,3,3,0,0,1,1.91,1.89,2.5,2.5,0,0,1-1.35,2A21.93,21.93,0,0,1,406.15,158.74Z"/><path class="cls-2" d="M450.75,165.32c0.13,2.31-1.7,5.64-3.63,5.44a5.32,5.32,0,0,1-4.19-4.85,4.34,4.34,0,0,1,4.61-4.71C449.5,161.2,450.71,162.75,450.75,165.32Z"/><path class="cls-2" d="M892.35,166.3c0.1-3.16,2.1-6,4.21-6,2.35,0,4.61,3.06,4.61,6.25s-1.8,5.5-4.54,5.54C894.16,172.1,892.24,169.52,892.35,166.3Z"/><path class="cls-2" d="M642.28,166.33a5.85,5.85,0,0,1-.41,2.19c-0.93,1.32-1.87,3-3.2,3.53-0.74.32-3.09-1-3.32-2a18,18,0,0,1-.29-7.28c0.16-.9,2.42-2.19,3.46-2,1.26,0.26,2.37,1.81,3.27,3C642.26,164.47,642.15,165.54,642.28,166.33Z"/><path class="cls-2" d="M542.35,170.29a12.12,12.12,0,0,1-3,1.6c-0.5.11-1.24-.83-1.87-1.29a10.3,10.3,0,0,1,2.52-1.93c0.57-.21,1.46.45,2.2,0.71Z"/><path class="cls-2" d="M542.58,162.18l-6,2.37C537.4,161,539.52,160.25,542.58,162.18Z"/><path class="cls-2" d="M583.16,167.3l1.8,2.15a15.29,15.29,0,0,1-3.46,2.31c-0.5.17-1.48-1-2.24-1.59Z"/><path class="cls-2" d="M617.4,167.16a9.93,9.93,0,0,1,1.38,2,15.12,15.12,0,0,1-3.26,3c-0.22.14-1.43-1.27-2.18-2Z"/><path class="cls-2" d="M786.41,166.89c0.84,1.37,1.56,2,1.65,2.79,0.18,1.49-2.1,3.46-3.69,3.06-0.81-.2-1.41-1.3-2.1-2Z"/><path class="cls-2" d="M767.82,167c0.05,3.08-1.56,5-4.25,5-2.9.05-4.71-1.91-4.85-5.25-0.13-3.07,2.2-6.14,4.71-6.2S767.76,163.26,767.82,167Z"/><path class="cls-2" d="M877.44,169.25c-0.17,3.23-2.27,3.5-3.9,3.52-0.81,0-1.63-1.61-2.45-2.5a30.82,30.82,0,0,1,4.63-2.4C876.17,167.73,877.08,168.94,877.44,169.25Z"/><path class="cls-2" d="M965.66,173.93c-1.28-1.23-2.48-1.94-2.87-3-0.19-.48,1.14-1.58,1.84-2.35a1.72,1.72,0,0,1,1-.44c1.22-.19,2.44-0.32,3.66-0.47,0,1.11.27,2.43-.22,3.27C968.4,172,967.11,172.72,965.66,173.93Z"/><path class="cls-1" d="M115.46,70.78c-0.85,4.63-1.1,9.94-2.88,14.68-2.46,6.54-6.42,12.31-13.43,15.07-1.24.49-2.45,1-3.66,1.6-6,2.73-12.47,2.34-18.75,3.19-7.14,1-14.34-.59-21.52,0A3.42,3.42,0,0,1,52.78,103c0.07-11,.39-21.91.58-32.87,0-2.74-.24-5.48-0.24-8.22,0-5-.1-10.08.22-15.1,0.14-2.19,2.3-2.49,4.18-2.43,4.9,0.14,9.79.4,14.69,0.48,5.49,0.09,11-.16,16.48.12a32,32,0,0,1,20.61,9c2.76,2.59,4.24,6.28,5,10.07C114.76,66,115,68.14,115.46,70.78Z"/></g></svg>