<?xml version="1.0" encoding="UTF-8" standalone="no"?>
<svg width="16px" height="16px" viewBox="0 0 16 16" version="1.1" xmlns="http://www.w3.org/2000/svg" xmlns:xlink="http://www.w3.org/1999/xlink" xmlns:sketch="http://www.bohemiancoding.com/sketch/ns">
    <!-- Generator: Sketch 3.5 (25232) - http://www.bohemiancoding.com/sketch -->
    <title>Mortality Records</title>
    <desc>Created with Sketch.</desc>
    <defs></defs>
    <g id="Icons" stroke="none" stroke-width="1" fill="none" fill-rule="evenodd" sketch:type="MSPage">
        <g id="Mortality-Records" sketch:type="MSArtboardGroup" fill="#B0B0B0">
            <g id="Mortality-Record-Icon" sketch:type="MSLayerGroup">
                <path d="M8.17142857,15.7142857 C3.88571429,15.7142857 0.4,12.2285714 0.4,7.94285714 C0.4,3.65714286 3.88571429,0.171428571 8.17142857,0.171428571 C12.4571429,0.171428571 15.9428571,3.65714286 15.9428571,7.94285714 C15.9428571,12.2285714 12.5142857,15.7142857 8.17142857,15.7142857 L8.17142857,15.7142857 Z M8.17142857,1.08571429 C4.4,1.08571429 1.31428571,4.17142857 1.31428571,7.94285714 C1.31428571,11.7142857 4.4,14.8 8.17142857,14.8 C11.9428571,14.8 15.0285714,11.7142857 15.0285714,7.94285714 C15.0285714,4.17142857 11.9428571,1.08571429 8.17142857,1.08571429 L8.17142857,1.08571429 Z" id="Shape" sketch:type="MSShapeGroup"></path>
                <path d="M8.17142857,13.8857143 C4.85714286,13.8857143 2.22857143,11.2571429 2.22857143,7.94285714 C2.22857143,6.74285714 2.57142857,5.54285714 3.31428571,4.45714286 C3.42857143,4.34285714 3.48571429,4.28571429 3.65714286,4.28571429 C3.77142857,4.28571429 3.94285714,4.28571429 4,4.4 L11.6,12 C11.7142857,12.1142857 11.7714286,12.1714286 11.7142857,12.3428571 C11.7142857,12.4571429 11.6,12.6285714 11.5428571,12.6857143 C10.5714286,13.4857143 9.37142857,13.8857143 8.17142857,13.8857143 L8.17142857,13.8857143 Z M3.82857143,5.48571429 C3.37142857,6.22857143 3.2,7.02857143 3.2,7.94285714 C3.2,10.6857143 5.48571429,12.9714286 8.22857143,12.9714286 C9.02857143,12.9714286 9.94285714,12.8 10.6857143,12.3428571 L3.82857143,5.48571429 L3.82857143,5.48571429 Z" id="Shape" sketch:type="MSShapeGroup"></path>
                <path d="M12.6857143,11.6 C12.5714286,11.6 12.4,11.4857143 12.3428571,11.4857143 L4.74285714,3.88571429 C4.62857143,3.77142857 4.57142857,3.71428571 4.62857143,3.54285714 C4.62857143,3.42857143 4.74285714,3.25714286 4.8,3.2 C5.82857143,2.45714286 6.97142857,2.11428571 8.28571429,2.11428571 C11.6,2.11428571 14.2285714,4.74285714 14.2285714,8.05714286 C14.2285714,9.25714286 13.8857143,10.4571429 13.1428571,11.5428571 C12.9714286,11.4857143 12.8571429,11.6 12.6857143,11.6 L12.6857143,11.6 L12.6857143,11.6 Z M5.71428571,3.54285714 L12.5714286,10.4 C13.0285714,9.65714286 13.2,8.85714286 13.2,7.94285714 C13.2,5.2 10.9142857,2.91428571 8.17142857,2.91428571 C7.37142857,2.91428571 6.45714286,3.08571429 5.71428571,3.54285714 L5.71428571,3.54285714 Z" id="Shape" sketch:type="MSShapeGroup"></path>
            </g>
        </g>
    </g>
</svg>