<?xml version="1.0" encoding="utf-8"?>
<!-- Generator: Adobe Illustrator 19.2.1, SVG Export Plug-In . SVG Version: 6.00 Build 0)  -->
<svg version="1.1" id="Layer_1" xmlns="http://www.w3.org/2000/svg" xmlns:xlink="http://www.w3.org/1999/xlink" x="0px" y="0px"
	 viewBox="0 0 16 16" style="enable-background:new 0 0 16 16;" xml:space="preserve">
<style type="text/css">
	.st0{fill:#B0B0B0;}
</style>
<g>
	<path class="st0" d="M15.6,3.6c-0.3-0.9-0.7-1.8-2.9-2c-0.9-0.1-1.7,0.2-2.2,0.7c-1.6-0.6-3.4-0.6-5,0C5,1.7,4.3,1.5,3.3,1.6
		c-2.2,0.2-2.6,1.1-2.9,2c-0.2,0.6-0.3,3.2,0.6,4C1,7.8,1,8,1,8.2c0,3.4,2.9,6.1,6.6,6.3c0.1,0,0.3,0,0.4,0c0.1,0,0.3,0,0.4,0
		c3.7-0.2,6.6-2.9,6.6-6.3c0-0.2,0-0.4,0-0.6C15.9,6.7,15.7,4.2,15.6,3.6z M1.6,7.1L1.6,7.1C0.9,6.8,0.9,4.5,1.1,3.8l0,0
		c0.2-0.6,0.4-1.4,2.3-1.5c0.1,0,0.2,0,0.3,0c0.7,0,1.2,0.2,1.4,0.6l0,0c0.1,0.2,0.1,0.4,0.1,0.6v0c0,0.1,0,0.1,0,0.2c0,0,0,0,0,0
		c0,0.1,0,0.1-0.1,0.2c0,0,0,0,0,0.1C5.1,4,5,4.1,5,4.1c0,0,0,0,0,0.1c0,0.1-0.1,0.1-0.1,0.2c0,0,0,0,0,0.1C4.8,4.5,4.7,4.6,4.7,4.7
		C3.8,5.8,2.7,7,1.9,7.1c0,0,0,0,0,0c0,0-0.1,0-0.1,0c0,0,0,0,0,0C1.7,7.1,1.7,7.1,1.6,7.1C1.6,7.1,1.6,7.1,1.6,7.1z M8.3,13.7
		c-0.1,0-0.2,0-0.3,0c-0.1,0-0.2,0-0.3,0c-1.4-0.1-2.5-0.9-2.5-1.9c0-1.1,1.3-1.9,2.8-1.9s2.8,0.9,2.8,1.9
		C10.8,12.8,9.7,13.6,8.3,13.7z M11.1,13c0.2-0.4,0.4-0.8,0.4-1.2c0-1.4-1.6-2.6-3.5-2.6s-3.5,1.2-3.5,2.6c0,0.4,0.1,0.8,0.4,1.2
		c-1.9-1-3.2-2.8-3.2-4.9c0-0.1,0-0.2,0-0.4c0,0,0,0,0.1,0c0,0,0,0,0,0s0,0,0.1,0c0,0,0.1,0,0.1,0c0,0,0.1,0,0.1,0c0,0,0.1,0,0.1,0
		c0,0,0.1,0,0.1,0c0,0,0.1,0,0.1,0c0,0,0,0,0.1,0c0.1,0,0.1,0,0.2-0.1c0,0,0,0,0,0c0.1,0,0.1-0.1,0.2-0.1c0,0,0,0,0,0
		C3.7,7,4.5,6,5.2,5.1C5.3,5,5.4,4.9,5.4,4.8c0,0,0-0.1,0.1-0.1c0-0.1,0.1-0.1,0.1-0.2c0,0,0-0.1,0.1-0.1c0-0.1,0.1-0.1,0.1-0.2
		c0,0,0-0.1,0-0.1c0-0.1,0-0.1,0.1-0.2c0,0,0-0.1,0-0.1c0-0.1,0-0.1,0-0.2c0,0,0-0.1,0-0.1c0-0.1,0-0.2,0-0.3c0-0.1,0-0.1,0-0.2
		c0,0,0-0.1,0-0.1c1.4-0.5,3-0.5,4.3,0c0,0,0,0.1,0,0.1c0,0.1,0,0.1,0,0.2c0,0.1,0,0.2,0,0.2c0,0,0,0.1,0,0.1c0,0.1,0,0.1,0,0.2
		c0,0,0,0.1,0,0.1c0,0.1,0,0.1,0.1,0.2c0,0,0,0.1,0,0.1c0,0.1,0.1,0.1,0.1,0.2c0,0,0,0.1,0.1,0.1c0,0.1,0.1,0.1,0.1,0.2
		c0,0,0,0.1,0.1,0.1c0.1,0.1,0.1,0.2,0.2,0.3c0,0,0,0,0,0c0.1,0.2,0.3,0.3,0.4,0.5c0,0,0,0.1,0.1,0.1c0,0.1,0.1,0.1,0.1,0.2
		c0,0.1,0.1,0.1,0.1,0.2c0,0,0,0,0.1,0.1c0.1,0.1,0.1,0.1,0.2,0.2c0,0,0,0,0,0c0.1,0.1,0.1,0.1,0.2,0.2c0,0,0,0,0,0
		c0.1,0.1,0.1,0.1,0.2,0.2c0,0,0,0,0,0c0.1,0.1,0.1,0.1,0.2,0.1c0,0,0,0,0.1,0.1c0,0,0.1,0.1,0.1,0.1c0,0,0,0,0.1,0.1
		c0,0,0.1,0.1,0.1,0.1c0,0,0.1,0,0.1,0.1c0,0,0.1,0.1,0.1,0.1c0,0,0.1,0,0.1,0.1c0,0,0.1,0,0.1,0.1c0,0,0.1,0,0.1,0.1
		c0,0,0.1,0,0.1,0c0,0,0.1,0,0.1,0.1c0,0,0.1,0,0.1,0c0,0,0.1,0,0.1,0c0,0,0.1,0,0.1,0c0,0,0.1,0,0.1,0c0,0,0.1,0,0.1,0
		c0,0,0,0,0.1,0c0,0,0,0,0.1,0c0,0,0,0,0.1,0c0,0.1,0,0.2,0,0.4C14.3,10.2,13,12.1,11.1,13z M14.5,7L14.5,7L14.5,7
		c-0.1,0-0.1,0-0.1,0.1c0,0,0,0-0.1,0c0,0,0,0-0.1,0s-0.1,0-0.1,0c0,0-0.1,0-0.1,0c0,0-0.1,0-0.1,0c0,0-0.1,0-0.1,0c0,0-0.1,0-0.1,0
		c0,0-0.1,0-0.1,0c0,0-0.1,0-0.1,0c0,0-0.1,0-0.1-0.1c0,0-0.1,0-0.1-0.1c0,0-0.1-0.1-0.1-0.1c0,0-0.1,0-0.1-0.1c0,0-0.1-0.1-0.1-0.1
		c0,0,0,0-0.1-0.1c0,0-0.1-0.1-0.1-0.1c0,0,0,0-0.1-0.1c0,0-0.1-0.1-0.2-0.2c0,0,0,0-0.1-0.1c0-0.1-0.1-0.1-0.2-0.2c0,0,0,0-0.1-0.1
		c0-0.1-0.1-0.1-0.1-0.2c0,0,0,0-0.1-0.1c0,0-0.1-0.1-0.1-0.2c0,0,0-0.1-0.1-0.1c0,0-0.1-0.1-0.1-0.1c-0.2-0.2-0.3-0.4-0.5-0.6
		c-0.1-0.1-0.1-0.2-0.2-0.2c0,0,0-0.1-0.1-0.1c0,0-0.1-0.1-0.1-0.1c0,0,0-0.1,0-0.1c0,0,0-0.1-0.1-0.1c0,0,0-0.1,0-0.1
		c0-0.1,0-0.1,0-0.2c0,0,0,0,0,0c0-0.1,0-0.1,0-0.2c0,0,0,0,0,0c0-0.2,0-0.4,0.1-0.6l0,0c0.2-0.4,0.7-0.6,1.4-0.6c0.1,0,0.2,0,0.3,0
		c1.9,0.2,2.1,0.9,2.3,1.5C15.1,4.5,15.1,6.7,14.5,7z"/>
	<circle class="st0" cx="5.7" cy="7.3" r="0.9"/>
	<circle class="st0" cx="10.3" cy="7.3" r="0.9"/>
	<circle class="st0" cx="6.8" cy="11.8" r="0.5"/>
	<circle class="st0" cx="9.2" cy="11.8" r="0.5"/>
</g>
</svg>
