<?xml version="1.0" encoding="UTF-8" standalone="no"?>
<svg width="16px" height="16px" viewBox="0 0 16 16" version="1.1" xmlns="http://www.w3.org/2000/svg" xmlns:xlink="http://www.w3.org/1999/xlink" xmlns:sketch="http://www.bohemiancoding.com/sketch/ns">
    <!-- Generator: Sketch 3.5 (25232) - http://www.bohemiancoding.com/sketch -->
    <title>Remove Pig</title>
    <desc>Created with Sketch.</desc>
    <defs></defs>
    <g id="Icons" stroke="none" stroke-width="1" fill="none" fill-rule="evenodd" sketch:type="MSPage">
        <g id="Remove-Pig" sketch:type="MSArtboardGroup" fill="#B0B0B0">
            <g sketch:type="MSLayerGroup" id="Shape">
                <path d="M14.6526316,15.6444444 C14.4842105,15.6444444 14.2315789,15.6444444 14.1473684,15.4666667 L0.673684211,1.24444444 C0.421052632,0.977777778 0.421052632,0.533333333 0.673684211,0.266666667 C0.926315789,-1.45258805e-13 1.34736842,-1.45258805e-13 1.6,0.266666667 L15.0736842,14.4888889 C15.3263158,14.7555556 15.3263158,15.2 15.0736842,15.4666667 C15.0736842,15.6444444 14.8210526,15.6444444 14.6526316,15.6444444 L14.6526316,15.6444444 Z" sketch:type="MSShapeGroup"></path>
                <path d="M1.17894737,15.6444444 C1.01052632,15.6444444 0.757894737,15.6444444 0.673684211,15.4666667 C0.421052632,15.2 0.421052632,14.7555556 0.673684211,14.4888889 L14.1473684,0.266666667 C14.4,-1.45258805e-13 14.8210526,-1.45258805e-13 15.0736842,0.266666667 C15.3263158,0.533333333 15.3263158,0.977777778 15.0736842,1.24444444 L1.6,15.4666667 C1.6,15.6444444 1.34736842,15.6444444 1.17894737,15.6444444 L1.17894737,15.6444444 Z" sketch:type="MSShapeGroup"></path>
            </g>
        </g>
    </g>
</svg>