<?xml version="1.0" encoding="UTF-8" standalone="no"?>
<svg width="16px" height="16px" viewBox="0 0 16 16" version="1.1" xmlns="http://www.w3.org/2000/svg" xmlns:xlink="http://www.w3.org/1999/xlink" xmlns:sketch="http://www.bohemiancoding.com/sketch/ns">
    <!-- Generator: Sketch 3.5 (25232) - http://www.bohemiancoding.com/sketch -->
    <title>Search Pig</title>
    <desc>Created with Sketch.</desc>
    <defs></defs>
    <g id="Icons" stroke="none" stroke-width="1" fill="none" fill-rule="evenodd" sketch:type="MSPage">
        <g id="Search-Pig" sketch:type="MSArtboardGroup" fill="#B0B0B0">
            <g id="Search-Icon" sketch:type="MSLayerGroup" transform="translate(1.000000, 0.000000)">
                <path d="M5.80434783,12.2 C2.67391304,12.2 0.0652173913,9.53333333 0.0652173913,6.33333333 C0.0652173913,3.13333333 2.67391304,0.466666667 5.80434783,0.466666667 C8.93478261,0.466666667 11.5434783,3.13333333 11.5434783,6.33333333 C11.5434783,9.53333333 8.93478261,12.2 5.80434783,12.2 L5.80434783,12.2 Z M5.80434783,1.53333333 C3.19565217,1.53333333 1.10869565,3.66666667 1.10869565,6.33333333 C1.10869565,9 3.19565217,11.1333333 5.80434783,11.1333333 C8.41304348,11.1333333 10.5,9 10.5,6.33333333 C10.5,3.66666667 8.41304348,1.53333333 5.80434783,1.53333333 L5.80434783,1.53333333 Z" id="Shape" sketch:type="MSShapeGroup"></path>
                <path d="M9.97826087,9.86666667 L14.5434783,14.5333333 C14.7391304,14.7333333 14.7391304,15.0666667 14.5434783,15.2666667 C14.4130435,15.4 14.2173913,15.4 14.1521739,15.4 C14.0217391,15.4 13.826087,15.4 13.7608696,15.2666667 L9.19565217,10.6 L9.97826087,9.86666667 L9.97826087,9.86666667 Z" id="Shape" sketch:type="MSShapeGroup"></path>
            </g>
        </g>
    </g>
</svg>