<?xml version="1.0" encoding="UTF-8" standalone="no"?>
<svg width="16px" height="16px" viewBox="0 0 16 16" version="1.1" xmlns="http://www.w3.org/2000/svg" xmlns:xlink="http://www.w3.org/1999/xlink" xmlns:sketch="http://www.bohemiancoding.com/sketch/ns">
    <!-- Generator: Sketch 3.5 (25232) - http://www.bohemiancoding.com/sketch -->
    <title>Update Pig</title>
    <desc>Created with Sketch.</desc>
    <defs></defs>
    <g id="Icons" stroke="none" stroke-width="1" fill="none" fill-rule="evenodd" sketch:type="MSPage">
        <g id="Update-Pig" sketch:type="MSArtboardGroup" fill="#B0B0B0">
            <g sketch:type="MSLayerGroup" transform="translate(0.000000, 1.000000)" id="Shape">
                <path d="M13.2307692,7.4375 C13.2307692,4.125 10.5846154,1.4375 7.32307692,1.4375 C4.06153846,1.4375 1.41538462,4.125 1.41538462,7.4375 C1.41538462,10.75 4.06153846,13.4375 7.32307692,13.4375 C7.63076923,13.4375 7.81538462,13.625 7.81538462,13.9375 C7.81538462,14.25 7.63076923,14.4375 7.32307692,14.4375 C3.50769231,14.4375 0.430769231,11.3125 0.430769231,7.4375 C0.430769231,3.5625 3.50769231,0.4375 7.32307692,0.4375 C11.1384615,0.4375 14.2153846,3.5625 14.2153846,7.4375 L13.2307692,7.4375 L13.2307692,7.4375 Z" sketch:type="MSShapeGroup"></path>
                <path d="M13.7230769,7.9375 C13.6,7.9375 13.5384615,7.9375 13.4153846,7.8125 L10.3384615,5.9375 C10.1538462,5.8125 10.0307692,5.5625 10.1538462,5.25 C10.2769231,5.0625 10.5230769,4.9375 10.8307692,5.0625 L13.4769231,6.6875 L15.0769231,4 C15.2,3.8125 15.5692308,3.6875 15.7538462,3.8125 C15.9384615,3.9375 16.0615385,4.1875 15.9384615,4.5 L14.0923077,7.625 C13.9692308,7.75 13.9076923,7.8125 13.7846154,7.8125 C13.7846154,7.9375 13.7230769,7.9375 13.7230769,7.9375 L13.7230769,7.9375 Z" sketch:type="MSShapeGroup"></path>
            </g>
        </g>
    </g>
</svg>